<svg xmlns="http://www.w3.org/2000/svg" fill="none" viewBox="0 0 394 80"><path fill="#000" d="M262 0h68.5v12.7h-27.2v66.6h-13.6V12.7H262V0ZM149 0v12.7H94v20.4H44.9V0h13.6v66.6h13.6V33.3h40.5V0H149Zm-28.9 43.7h-27.2v-8.1h27.2v8.1Zm-27.2 8.1h27.2v8.1h-27.2v-8.1ZM82.6 0H44.9v66.6h13.6V43.7h24.1V0H82.6Zm-24.1 33.3h-10.5V12.7h10.5v20.6Zm0 8.1h-10.5v20.6h10.5V41.4ZM394 0l-55.2 80H325l28.8-41.7L325 80h-13.6l55.2-80H394Zm-68.5 0h13.6L394 80h-13.6L312.5 0Z"/><path fill="#000" d="M81.6 80H0V0h13.6v66.6h68V80Z"/></svg>
